<mxfile host="app.diagrams.net" modified="2024-03-14T08:23:18.385Z" agent="Mozilla/5.0 (X11; Linux x86_64) AppleWebKit/537.36 (KHTML, like Gecko) Chrome/102.0.0.0 Safari/537.36" version="24.0.2" etag="mYir0oGaShArKuh6lCvY" type="github">
  <diagram name="Страница — 1" id="yJk9gWLUSy9jOpeMOX59">
    <mxGraphModel>
      <root>
        <mxCell id="0" />
        <mxCell id="1" parent="0" />
      </root>
    </mxGraphModel>
  </diagram>
</mxfile>
